<svg width="101" height="100" viewBox="0 0 101 100" fill="none" xmlns="http://www.w3.org/2000/svg">
<path d="M81.34 82.61C80.9557 82.4679 80.5497 82.3935 80.14 82.39C79.752 82.358 79.63 82.282 79.556 82.19C79.1846 81.6563 78.6425 81.265 78.019 81.0807C77.3955 80.8963 76.7278 80.93 76.126 81.176C75.898 80.248 74.776 79.444 73.54 79.714C73.582 78.514 72.042 77.214 70.66 76.914C69.332 76.632 68.176 76.75 67.42 77.622C66.61 76.04 63.434 75.594 61.716 76.432C60.728 76.912 59.888 77.406 59.478 78.312C59.2085 78.8725 59.0808 79.4906 59.106 80.112C58.436 79.522 57.096 79.362 56.202 79.712C55.238 80.086 55.164 80.812 55.116 81.552C54.5436 81.387 53.9379 81.3759 53.36 81.52C52.76 81.7 52.402 82.178 52.486 82.562C52.006 82.536 50.86 82.924 50.992 83.432C51.14 84.002 52.448 83.944 52.936 83.926C53.3968 83.8901 53.8542 83.8186 54.304 83.712C54.531 83.7976 54.7713 83.843 55.014 83.846C55.848 83.846 56.2 83.484 56.334 83.174C56.734 84.03 58.186 84.682 59.21 84.944C61.134 85.436 63.86 85.144 65.046 83.696C65.185 83.9672 65.3799 84.2057 65.618 84.396C66.1283 84.8062 66.748 85.0573 67.4 85.118C68.2 85.192 70.314 85.292 70.912 84.036C71.334 84.872 73.224 85.252 74.66 85.048C75.2172 84.9644 75.7595 84.8007 76.27 84.562C76.588 84.3945 76.8964 84.2096 77.194 84.008C77.478 83.838 77.606 83.84 77.982 83.954C78.968 84.252 80.114 84.372 81.12 83.954C81.926 83.624 82.1 82.952 81.34 82.61Z" fill="#F5F5F5"/>
<path d="M70.7001 69.872C70.9501 69.7801 71.2138 69.7314 71.4801 69.728C71.7321 69.708 71.8121 69.658 71.8601 69.604C72.1023 69.2562 72.4557 69.0013 72.8622 68.8813C73.2687 68.7613 73.7039 68.7834 74.0961 68.944C74.2441 68.344 74.9761 67.814 75.7821 67.99C75.7541 67.204 76.7581 66.36 77.6581 66.168C78.5241 65.984 79.2761 66.062 79.7701 66.63C80.2981 65.6 82.3701 65.308 83.4881 65.854C84.1321 66.168 84.6221 66.518 84.9461 67.08C85.1115 67.3465 85.1924 67.6567 85.1781 67.97C86.2241 66.818 88.2321 68.096 88.5781 69.27C88.75 69.1579 88.945 69.086 89.1486 69.0598C89.3521 69.0335 89.559 69.0535 89.7537 69.1183C89.9484 69.1831 90.126 69.291 90.2733 69.4339C90.4205 69.5769 90.5336 69.7513 90.6041 69.944C91.0669 69.8581 91.544 69.8918 91.9901 70.042C92.0515 70.0554 92.1094 70.0814 92.1604 70.1182C92.2113 70.155 92.2541 70.2019 92.2861 70.256C92.3087 70.3229 92.3101 70.3951 92.2901 70.4628C92.27 70.5304 92.2295 70.5902 92.1741 70.634C91.8921 70.868 91.3741 70.962 90.6401 70.924C90.5081 70.984 90.3081 71.082 90.1801 71.156C89.8739 71.3132 89.5379 71.4038 89.1941 71.422C88.2321 71.434 87.4301 71.254 86.9841 70.778C86.5807 71.248 86.0233 71.5594 85.4115 71.6565C84.7997 71.7536 84.1733 71.6301 83.6441 71.308C83.5759 71.2477 83.4871 71.2162 83.3961 71.22C83.3546 71.231 83.3153 71.2492 83.2801 71.274C82.5681 71.718 81.2061 71.75 80.5941 71.218C80.0646 71.4508 79.4878 71.5563 78.9101 71.526C78.3821 71.484 77.7381 71.326 77.4881 70.808C77.2121 71.352 75.9821 71.608 75.0441 71.468C74.6817 71.4123 74.3289 71.306 73.9961 71.152C73.7897 71.0424 73.5894 70.9215 73.3961 70.79C73.3216 70.7383 73.2345 70.7077 73.1441 70.7013C73.0536 70.695 72.9631 70.7132 72.8821 70.754C72.2381 70.954 71.4921 71.028 70.8361 70.754C70.3181 70.534 70.2081 70.096 70.7001 69.872Z" fill="#F5F5F5"/>
<path d="M31.7099 54.138C31.4216 54.0316 31.1172 53.9754 30.8099 53.972C30.5199 53.95 30.4279 53.892 30.3719 53.828C30.0928 53.4269 29.6853 53.1329 29.2167 52.9944C28.7481 52.8559 28.2463 52.8811 27.7939 53.066C27.6219 52.37 26.7799 51.764 25.8499 51.968C25.8819 51.062 24.7259 50.09 23.6859 49.868C22.6859 49.656 21.8199 49.744 21.2519 50.4C20.6519 49.212 18.2519 48.876 16.9659 49.506C16.2239 49.868 15.5939 50.238 15.2859 50.918C15.0825 51.3394 14.9863 51.8045 15.0059 52.272C14.5019 51.828 13.4939 51.708 12.8219 51.968C12.0979 52.248 12.0419 52.794 12.0079 53.35C11.5775 53.227 11.1225 53.2187 10.6879 53.326C10.2319 53.462 9.96792 53.82 10.0299 54.11C9.66992 54.09 8.80792 54.382 8.90792 54.764C9.01792 55.192 10.0019 55.148 10.3679 55.134C10.7142 55.1071 11.0579 55.0536 11.3959 54.974C11.5669 55.0375 11.7475 55.0714 11.9299 55.074C12.5559 55.074 12.8219 54.802 12.9299 54.57C13.2359 55.212 14.3299 55.702 15.0899 55.898C16.5379 56.27 18.5859 56.044 19.4759 54.962C19.5789 55.1651 19.7233 55.3443 19.8999 55.488C20.2832 55.7959 20.7484 55.9844 21.2379 56.03C21.8379 56.086 23.4259 56.162 23.8759 55.216C24.1939 55.844 25.6139 56.13 26.6939 55.978C27.1092 55.9135 27.5133 55.7903 27.8939 55.612C28.1335 55.4864 28.3658 55.3475 28.5899 55.196C28.8019 55.068 28.8979 55.07 29.1899 55.156C29.9299 55.378 30.7899 55.47 31.5459 55.156C32.1499 54.9 32.2759 54.4 31.7099 54.138Z" fill="#F5F5F5"/>
<path d="M34.07 23.8C33.7901 23.6965 33.4944 23.6424 33.196 23.64C32.912 23.618 32.822 23.562 32.768 23.5C32.4971 23.1101 32.1014 22.8243 31.6461 22.6898C31.1908 22.5552 30.7033 22.58 30.264 22.76C30.098 22.082 29.28 21.494 28.376 21.692C28.408 20.812 27.284 19.868 26.274 19.652C25.306 19.452 24.462 19.532 23.91 20.17C23.31 19.014 21 18.688 19.746 19.3C19.024 19.652 18.412 20.012 18.112 20.674C17.9142 21.0828 17.8208 21.5343 17.84 21.988C17.352 21.556 16.372 21.44 15.72 21.692C15.016 21.964 14.962 22.492 14.92 23.036C14.5022 22.9153 14.06 22.907 13.638 23.012C13.194 23.144 12.938 23.492 13 23.774C12.648 23.754 11.812 24.038 11.908 24.408C12.016 24.824 12.972 24.782 13.328 24.768C13.6648 24.7415 13.9991 24.6894 14.328 24.612C14.4943 24.6747 14.6703 24.7079 14.848 24.71C15.448 24.71 15.712 24.446 15.81 24.22C16.106 24.844 17.164 25.32 17.91 25.512C19.31 25.872 21.31 25.652 22.17 24.602C22.2717 24.7996 22.4142 24.9735 22.588 25.112C22.9611 25.4111 23.4138 25.594 23.89 25.638C24.466 25.692 26.016 25.766 26.452 24.838C26.762 25.438 28.14 25.726 29.19 25.578C29.5961 25.5161 29.9914 25.3969 30.364 25.224C30.596 25.1034 30.821 24.9698 31.038 24.824C31.238 24.7 31.338 24.702 31.614 24.784C32.334 25.002 33.17 25.09 33.904 24.784C34.5 24.532 34.62 24.042 34.07 23.8Z" fill="#F5F5F5"/>
<path d="M74.4057 14.8C74.0852 14.6822 73.7471 14.62 73.4057 14.616C73.0817 14.592 72.9797 14.528 72.9177 14.458C72.6087 14.0122 72.1567 13.6853 71.6366 13.5314C71.1165 13.3776 70.5594 13.406 70.0577 13.612C69.8677 12.838 68.9317 12.168 67.9017 12.394C67.9377 11.394 66.6537 10.308 65.5017 10.062C64.3977 9.828 63.4337 9.926 62.8017 10.662C62.1257 9.342 59.4777 8.97 58.0457 9.662C57.2217 10.062 56.5217 10.476 56.1817 11.23C55.9562 11.6975 55.8491 12.2133 55.8697 12.732C55.3117 12.24 54.1937 12.106 53.4477 12.394C52.6477 12.706 52.5837 13.312 52.5437 13.928C52.0665 13.7904 51.5614 13.7814 51.0797 13.902C50.5737 14.052 50.2797 14.45 50.3497 14.772C49.9497 14.75 48.9957 15.074 49.1037 15.496C49.2277 15.972 50.3177 15.924 50.7257 15.908C51.1097 15.8779 51.4908 15.8184 51.8657 15.73C52.0576 15.802 52.2607 15.8399 52.4657 15.842C53.1617 15.842 53.4557 15.54 53.5657 15.28C53.9057 15.994 55.1117 16.538 55.9657 16.756C57.5657 17.168 59.8437 16.916 60.8317 15.716C60.9453 15.9411 61.1047 16.1401 61.2997 16.3C61.726 16.6405 62.2425 16.8491 62.7857 16.9C63.4457 16.962 65.2137 17.046 65.7137 15.998C66.0657 16.694 67.6417 17.012 68.8397 16.842C69.3031 16.7732 69.7544 16.6385 70.1797 16.442C70.4458 16.3031 70.7035 16.1489 70.9517 15.98C71.1877 15.838 71.2937 15.84 71.6097 15.936C72.4317 16.184 73.3857 16.284 74.2237 15.936C74.8997 15.648 75.0337 15.088 74.4057 14.8Z" fill="#F5F5F5"/>
<path d="M26.4859 82.676C26.4771 82.6395 26.4608 82.6051 26.4381 82.5752C26.4154 82.5452 26.3867 82.5203 26.3539 82.502L13.3539 75.386L26.0999 83.048C26.1463 83.0751 26.1998 83.0877 26.2534 83.0844C26.3071 83.0812 26.3585 83.062 26.4013 83.0295C26.4441 82.997 26.4763 82.9525 26.4939 82.9017C26.5114 82.8509 26.5135 82.796 26.4999 82.744L26.4859 82.676ZM36.1819 67.886L27.6299 63.264L35.8999 68.356C35.9595 68.3932 36.0311 68.4061 36.0999 68.392C36.1559 68.383 36.2077 68.3566 36.2478 68.3165C36.288 68.2764 36.3145 68.2246 36.3236 68.1686C36.3327 68.1126 36.3239 68.0551 36.2984 68.0044C36.273 67.9537 36.2322 67.9122 36.1819 67.886ZM32.4359 70.172L16.4159 61.264L32.1259 70.674C32.1746 70.7025 32.2311 70.7151 32.2873 70.7101C32.3436 70.7051 32.3969 70.6827 32.4399 70.646L32.4779 70.616C32.5112 70.5877 32.5373 70.5517 32.5538 70.5111C32.5703 70.4706 32.5767 70.4266 32.5726 70.3831C32.5685 70.3395 32.5539 70.2975 32.5301 70.2608C32.5063 70.224 32.474 70.1936 32.4359 70.172ZM27.0059 78.106C27.0415 78.1276 27.0816 78.1407 27.1231 78.1442C27.1646 78.1477 27.2064 78.1416 27.2451 78.1263C27.2838 78.111 27.3185 78.0869 27.3464 78.056C27.3743 78.0251 27.3946 77.9881 27.4059 77.948L27.4899 77.674L5.27588 65.2L27.0059 78.106ZM29.3839 73.492L17.6159 67.046L29.0779 74.012C29.1376 74.0473 29.2085 74.0585 29.2762 74.0433C29.3438 74.028 29.4031 73.9875 29.4419 73.93C29.4514 73.9139 29.4621 73.8985 29.4739 73.884C29.4955 73.8529 29.5103 73.8176 29.5175 73.7805C29.5246 73.7433 29.524 73.705 29.5155 73.6681C29.507 73.6312 29.4909 73.5965 29.4683 73.5662C29.4456 73.5358 29.4169 73.5106 29.3839 73.492Z" fill="#F5F5F5"/>
<path d="M27.6602 74.556C25.9082 74.112 24.0082 74.822 21.1782 73.232C18.8002 71.894 16.7582 68.832 16.2742 70.77C16.1082 71.7 17.5782 73.97 18.4362 74.67C16.4962 73.812 15.9642 74.126 16.6522 75.578C17.5422 77.45 19.6522 78.816 19.6522 78.816C19.6522 78.816 18.2182 79.14 19.4522 80.356C21.0982 81.956 24.3202 81.83 24.3202 81.83C24.3202 81.83 21.8362 82.512 23.1202 83.148C23.5008 83.3079 23.9075 83.3967 24.3202 83.41C28.3422 83.676 31.4942 79.036 29.7922 75.92C29.3462 75.07 28.3562 74.734 27.6602 74.556Z" fill="#BA68C8"/>
<path opacity="0.65" d="M27.6602 74.556C25.9082 74.112 24.0082 74.822 21.1782 73.232C18.8002 71.894 16.7582 68.832 16.2742 70.77C16.1082 71.7 17.5782 73.97 18.4362 74.67C16.4962 73.812 15.9642 74.126 16.6522 75.578C17.5422 77.45 19.6522 78.816 19.6522 78.816C19.6522 78.816 18.2182 79.14 19.4522 80.356C21.0982 81.956 24.3202 81.83 24.3202 81.83C24.3202 81.83 21.8362 82.512 23.1202 83.148C23.5008 83.3079 23.9075 83.3967 24.3202 83.41C28.3422 83.676 31.4942 79.036 29.7922 75.92C29.3462 75.07 28.3562 74.734 27.6602 74.556Z" fill="white"/>
<path opacity="0.4" d="M28.08 76.176C26.986 75.776 25.824 75.606 24.702 75.294C23.208 74.876 21.796 74.21 20.392 73.55L19.392 72.854C19.092 73.386 19.276 74.16 19.592 74.684C19.9328 75.1945 20.3873 75.619 20.92 75.924C20.8027 76.0711 20.7323 76.2501 20.7181 76.4377C20.7038 76.6253 20.7463 76.8129 20.84 76.976C21.0353 77.2994 21.3183 77.5608 21.656 77.73C22.1382 78.002 22.6641 78.1881 23.21 78.28C23.1421 78.3017 23.0792 78.3367 23.025 78.3831C22.9708 78.4294 22.9264 78.486 22.8943 78.5497C22.8623 78.6134 22.8433 78.6829 22.8384 78.754C22.8336 78.8252 22.8429 78.8965 22.866 78.964C22.9112 79.1292 22.9887 79.2837 23.0941 79.4186C23.1995 79.5536 23.3307 79.6662 23.48 79.75C23.8804 79.9538 24.3193 80.071 24.768 80.094C25.2289 80.127 25.6917 80.123 26.152 80.082C26 80.308 26.152 80.628 26.384 80.782C27.03 81.23 27.93 81.206 28.654 80.982C28.9226 80.8969 29.1803 80.7807 29.422 80.636C30.0157 79.725 30.3133 78.6527 30.274 77.566C29.6647 76.9335 28.9122 76.4568 28.08 76.176Z" fill="#BA68C8"/>
<path d="M26.5443 74.534C25.4242 74.3776 24.3148 74.1525 23.2223 73.86C22.1629 73.5381 21.1209 73.1616 20.1003 72.732C19.9615 72.6639 19.8053 72.6395 19.6523 72.662C19.4203 72.718 19.3103 72.98 19.2983 73.22C19.2983 73.5898 19.3986 73.9526 19.5883 74.27C20.0412 74.9594 20.7281 75.4616 21.5223 75.684C21.3791 75.7372 21.2572 75.8357 21.1753 75.9646C21.0933 76.0936 21.0557 76.2457 21.0683 76.398C21.1183 76.882 21.4543 77.126 21.7283 77.302C22.4183 77.744 23.3423 77.924 24.1583 78.004C23.8463 78.136 23.4983 78.308 23.4063 78.634C23.2063 79.37 24.1763 79.616 24.6923 79.71C25.3884 79.8086 26.0945 79.8154 26.7923 79.73C26.5803 79.882 26.6303 80.232 26.8183 80.41C27.4043 80.954 28.6943 80.664 29.2643 80.21C30.0403 79.584 30.3843 78.65 30.2643 77.426C30.0923 76.556 29.4923 75.594 28.7403 75.128C28.1123 74.728 27.3403 74.652 26.6143 74.55L26.5443 74.534Z" fill="#BA68C8"/>
<path opacity="0.75" d="M26.5443 74.534C25.4242 74.3776 24.3148 74.1525 23.2223 73.86C22.1629 73.5381 21.1209 73.1616 20.1003 72.732C19.9615 72.6639 19.8053 72.6395 19.6523 72.662C19.4203 72.718 19.3103 72.98 19.2983 73.22C19.2983 73.5898 19.3986 73.9526 19.5883 74.27C20.0412 74.9594 20.7281 75.4616 21.5223 75.684C21.3791 75.7372 21.2572 75.8357 21.1753 75.9646C21.0933 76.0936 21.0557 76.2457 21.0683 76.398C21.1183 76.882 21.4543 77.126 21.7283 77.302C22.4183 77.744 23.3423 77.924 24.1583 78.004C23.8463 78.136 23.4983 78.308 23.4063 78.634C23.2063 79.37 24.1763 79.616 24.6923 79.71C25.3884 79.8086 26.0945 79.8154 26.7923 79.73C26.5803 79.882 26.6303 80.232 26.8183 80.41C27.4043 80.954 28.6943 80.664 29.2643 80.21C30.0403 79.584 30.3843 78.65 30.2643 77.426C30.0923 76.556 29.4923 75.594 28.7403 75.128C28.1123 74.728 27.3403 74.652 26.6143 74.55L26.5443 74.534Z" fill="white"/>
<path opacity="0.4" d="M29.81 75.92C29.346 75.07 28.356 74.734 27.66 74.556C25.908 74.112 24.008 74.822 21.178 73.232C19.452 72.262 17.906 70.384 17.002 70.166L17.03 70.488C17.886 70.802 18.526 71.888 19.854 73.022C21.182 74.156 22.866 74.89 25.264 75.098C27.662 75.306 28.864 75.098 29.78 76.498C29.926 76.72 30.038 76.764 30.122 76.682C30.046 76.4174 29.9414 76.1619 29.81 75.92Z" fill="#BA68C8"/>
<path d="M30.2642 77.422C30.2082 75.998 29.3562 74.222 26.9442 74.2C23.7102 74.174 21.3842 73.294 18.8482 70.938C17.6162 69.792 16.2602 69.688 16.2642 70.994C16.3502 70.23 17.2642 70.25 18.3002 71.33C19.5002 72.578 20.8422 73.886 23.5942 74.53C26.3462 75.174 27.3602 74.78 28.3942 75.222C29.1682 75.554 29.8622 76.414 30.2642 77.422Z" fill="#BA68C8"/>
<path opacity="0.9" d="M30.2642 77.422C30.2082 75.998 29.3562 74.222 26.9442 74.2C23.7102 74.174 21.3842 73.294 18.8482 70.938C17.6162 69.792 16.2602 69.688 16.2642 70.994C16.3502 70.23 17.2642 70.25 18.3002 71.33C19.5002 72.578 20.8422 73.886 23.5942 74.53C26.3462 75.174 27.3602 74.78 28.3942 75.222C29.1682 75.554 29.8622 76.414 30.2642 77.422Z" fill="white"/>
<path d="M40.1379 68.622C40.8959 67.086 42.5699 66.156 43.1659 63.134C43.6679 60.594 42.7239 57.23 44.4119 58.08C45.1799 58.536 45.8999 60.994 45.8819 62.05C46.4559 60.122 47.0079 59.932 47.6259 61.326C48.4259 63.126 48.1079 65.49 48.1079 65.49C48.1079 65.49 49.1079 64.806 49.1319 66.458C49.1559 68.43 47.0139 71.214 47.0139 71.214C47.6139 70.69 49.0139 70.054 48.5139 71.414C48.3139 71.958 47.2519 73.184 45.0999 74.126C42.5219 75.256 39.8539 73.274 39.7959 71.022C39.7739 70.094 39.8379 69.23 40.1379 68.622Z" fill="#BA68C8"/>
<path opacity="0.65" d="M40.1379 68.622C40.8959 67.086 42.5699 66.156 43.1659 63.134C43.6679 60.594 42.7239 57.23 44.4119 58.08C45.1799 58.536 45.8999 60.994 45.8819 62.05C46.4559 60.122 47.0079 59.932 47.6259 61.326C48.4259 63.126 48.1079 65.49 48.1079 65.49C48.1079 65.49 49.1079 64.806 49.1319 66.458C49.1559 68.43 47.0139 71.214 47.0139 71.214C47.6139 70.69 49.0139 70.054 48.5139 71.414C48.3139 71.958 47.2519 73.184 45.0999 74.126C42.5219 75.256 39.8539 73.274 39.7959 71.022C39.7739 70.094 39.8379 69.23 40.1379 68.622Z" fill="white"/>
<path opacity="0.4" d="M41.042 69.926C41.43 68.892 42.018 67.948 42.482 66.946C43.1 65.612 43.482 64.184 43.882 62.764L43.994 61.616C44.562 61.73 44.994 62.34 45.194 62.89C45.3509 63.452 45.3762 64.0426 45.268 64.616C45.4464 64.6233 45.6184 64.6845 45.7613 64.7917C45.9041 64.8988 46.0111 65.0468 46.068 65.216C46.1797 65.5567 46.1929 65.9221 46.106 66.27C46.0057 66.7846 45.8169 67.2779 45.548 67.728C45.6057 67.693 45.6697 67.6699 45.7363 67.6599C45.803 67.65 45.871 67.6534 45.9363 67.6699C46.0017 67.6865 46.063 67.7159 46.1169 67.7564C46.1708 67.797 46.216 67.8478 46.25 67.906C46.3406 68.0404 46.4037 68.1915 46.4356 68.3504C46.4675 68.5093 46.4677 68.673 46.436 68.832C46.338 69.2464 46.1525 69.6351 45.892 69.972C45.633 70.3245 45.3461 70.6555 45.034 70.962C45.29 70.992 45.422 71.304 45.394 71.562C45.318 72.304 44.748 72.936 44.142 73.318C43.916 73.4582 43.6743 73.5717 43.422 73.656C42.042 73.962 40.622 73.37 40.698 72.37C40.6153 71.5395 40.7333 70.7014 41.042 69.926Z" fill="#BA68C8"/>
<path d="M40.8079 67.8C41.3826 66.8989 41.9022 65.9639 42.364 65C42.7848 64.0347 43.1566 63.0488 43.4779 62.046C43.5134 61.9044 43.5907 61.7768 43.6999 61.68C43.7991 61.6273 43.9125 61.6077 44.0237 61.6238C44.1348 61.64 44.2379 61.6912 44.3179 61.77C44.5838 61.9996 44.7828 62.2967 44.8939 62.63C45.11 63.3817 45.0482 64.1861 44.72 64.896C44.8472 64.8236 44.995 64.7957 45.1399 64.8167C45.2848 64.8377 45.4185 64.9064 45.52 65.012C45.6403 65.1519 45.7251 65.3188 45.7672 65.4984C45.8093 65.6781 45.8075 65.8652 45.7619 66.044C45.6559 66.816 45.2179 67.592 44.7739 68.23C45.0619 68.086 45.3979 67.942 45.6879 68.076C46.3439 68.38 45.918 69.24 45.67 69.676C45.3136 70.2374 44.8853 70.7498 44.3959 71.2C44.6339 71.142 44.8559 71.4 44.8659 71.64C44.8979 72.398 43.898 73.148 43.2199 73.274C42.2939 73.446 41.1919 73.602 40.3819 72.764C39.8639 72.102 39.7639 70.59 39.8899 69.764C39.9959 69.068 40.4059 68.466 40.7799 67.874L40.8079 67.8Z" fill="#BA68C8"/>
<path opacity="0.75" d="M40.8079 67.8C41.3826 66.8989 41.9022 65.9639 42.364 65C42.7848 64.0347 43.1566 63.0488 43.4779 62.046C43.5134 61.9044 43.5907 61.7768 43.6999 61.68C43.7991 61.6273 43.9125 61.6077 44.0237 61.6238C44.1348 61.64 44.2379 61.6912 44.3179 61.77C44.5838 61.9996 44.7828 62.2967 44.8939 62.63C45.11 63.3817 45.0482 64.1861 44.72 64.896C44.8472 64.8236 44.995 64.7957 45.1399 64.8167C45.2848 64.8377 45.4185 64.9064 45.52 65.012C45.6403 65.1519 45.7251 65.3188 45.7672 65.4984C45.8093 65.6781 45.8075 65.8652 45.7619 66.044C45.6559 66.816 45.2179 67.592 44.7739 68.23C45.0619 68.086 45.3979 67.942 45.6879 68.076C46.3439 68.38 45.918 69.24 45.67 69.676C45.3136 70.2374 44.8853 70.7498 44.3959 71.2C44.6339 71.142 44.8559 71.4 44.8659 71.64C44.8979 72.398 43.898 73.148 43.2199 73.274C42.2939 73.446 41.1919 73.602 40.3819 72.764C39.8639 72.102 39.7639 70.59 39.8899 69.764C39.9959 69.068 40.4059 68.466 40.7799 67.874L40.8079 67.8Z" fill="white"/>
<path opacity="0.4" d="M39.6702 71.142C39.5002 70.236 39.8382 69.23 40.1382 68.622C40.8962 67.086 42.5702 66.156 43.1662 63.134C43.5302 61.292 43.1342 59.016 43.5322 58.23L43.7462 58.45C43.4442 59.26 43.8282 60.39 43.8302 62.05C43.8754 63.9457 43.2979 65.8039 42.1862 67.34C40.8622 69.196 40.3362 69.762 40.2242 71.34C40.1942 71.754 40.1882 72.164 40.0782 72.174C39.8737 71.8612 39.7349 71.5101 39.6702 71.142Z" fill="#BA68C8"/>
<path d="M40.3742 72.754C39.3882 71.834 38.8562 69.634 40.3222 67.884C42.2882 65.54 42.9222 63.302 42.9522 60.036C42.9722 58.236 43.6442 57.4 44.5782 58.21C43.9782 57.8 43.4722 58.54 43.5022 60.05C43.5342 61.79 43.4882 63.75 42.6142 65.676C41.5082 68.114 40.4822 68.542 40.1662 69.556C39.9282 70.324 39.9002 71.842 40.3742 72.754Z" fill="#BA68C8"/>
<path opacity="0.9" d="M40.3742 72.754C39.3882 71.834 38.8562 69.634 40.3222 67.884C42.2882 65.54 42.9222 63.302 42.9522 60.036C42.9722 58.236 43.6442 57.4 44.5782 58.21C43.9782 57.8 43.4722 58.54 43.5022 60.05C43.5342 61.79 43.4882 63.75 42.6142 65.676C41.5082 68.114 40.4822 68.542 40.1662 69.556C39.9282 70.324 39.9002 71.842 40.3742 72.754Z" fill="white"/>
<path d="M43.5001 70.938L40.2621 69.07C38.9661 68.336 37.1821 68.45 35.2141 69.586C31.2501 71.874 28.0381 77.438 28.0381 82.014C28.0381 84.288 28.8381 85.888 30.1161 86.644L33.3521 88.512L33.8081 87.312C34.5052 87.1339 35.1733 86.8571 35.7921 86.49C39.7561 84.202 42.9681 78.638 42.9681 74.062C42.9778 73.3489 42.8876 72.638 42.7001 71.95L43.5001 70.938Z" fill="#BA68C8"/>
<path opacity="0.1" d="M28.1001 80.894C28.0592 81.266 28.0378 81.6398 28.0361 82.014C28.0361 84.288 28.8361 85.888 30.1141 86.644L33.3501 88.512L33.8061 87.312C33.9561 87.276 34.1081 87.232 34.2601 87.182L34.9381 84.842L28.1001 80.894Z" fill="black"/>
<path d="M43.526 82.6676C46.3277 77.8149 46.3277 72.5696 43.5258 70.9519C40.724 69.3343 36.1814 71.9569 33.3796 76.8096C30.5779 81.6624 30.578 86.9077 33.3798 88.5253C36.1817 90.143 40.7243 87.5204 43.526 82.6676Z" fill="#BA68C8"/>
<path opacity="0.3" d="M43.526 82.6676C46.3277 77.8149 46.3277 72.5696 43.5258 70.9519C40.724 69.3343 36.1814 71.9569 33.3796 76.8096C30.5779 81.6624 30.578 86.9077 33.3798 88.5253C36.1817 90.143 40.7243 87.5204 43.526 82.6676Z" fill="white"/>
<path d="M43.9002 72.896C43.0102 71.356 41.1862 71.182 39.0202 72.432C35.4382 74.5 32.4102 79.744 32.4102 83.882C32.4102 84.966 32.6102 85.9 33.0102 86.582C33.9002 88.124 35.7242 88.298 37.8902 87.046C41.4722 84.978 44.5002 79.734 44.5002 75.6C44.5002 74.516 44.3002 73.582 43.9002 72.9V72.896Z" fill="#BA68C8"/>
<path d="M43.9962 72.954C42.9962 71.354 41.0362 71.096 38.7742 72.292C35.0322 74.268 32.0042 79.512 32.1622 83.742C32.2042 84.85 32.4622 85.812 32.9102 86.526C33.9102 88.126 35.8702 88.382 38.1302 87.188C41.8742 85.21 44.9002 79.968 44.7422 75.738C44.7002 74.628 44.4422 73.666 43.9962 72.954Z" fill="#BA68C8"/>
<path d="M37.4022 86.778C35.9622 87.538 34.6482 87.712 33.6242 87.324C33.341 87.1014 33.0993 86.8306 32.9102 86.524C32.4622 85.81 32.2042 84.848 32.1622 83.74C32.0042 79.51 35.0322 74.266 38.7742 72.29C40.2142 71.528 41.5262 71.356 42.5522 71.744C42.8353 71.9667 43.077 72.2375 43.2662 72.544C43.7122 73.256 43.9702 74.22 44.0122 75.328C44.1722 79.558 41.1442 84.8 37.4022 86.778Z" fill="#FAFAFA"/>
<path d="M38.0123 73.334C37.9673 73.3649 37.9302 73.406 37.9042 73.454C37.8781 73.502 37.8638 73.5554 37.8623 73.61V74.386C37.8623 74.49 37.9303 74.536 38.0143 74.486C38.0593 74.4551 38.0964 74.414 38.1224 74.366C38.1485 74.318 38.1629 74.2646 38.1643 74.21V73.434C38.1643 73.33 38.1003 73.284 38.0123 73.334Z" fill="#BA68C8"/>
<path d="M43.1679 76.31C43.1637 76.3644 43.1466 76.4171 43.1181 76.4637C43.0896 76.5103 43.0505 76.5494 43.0039 76.578L42.3319 76.968C42.2419 77.02 42.1699 76.984 42.1699 76.888C42.174 76.8333 42.191 76.7803 42.2195 76.7333C42.248 76.6864 42.2872 76.6469 42.3339 76.618L43.0059 76.228C43.0999 76.178 43.1679 76.214 43.1679 76.31Z" fill="#BA68C8"/>
<path d="M32.668 82.6C32.6724 82.5453 32.6895 82.4925 32.718 82.4456C32.7465 82.3987 32.7855 82.3591 32.832 82.33L33.504 81.942C33.594 81.89 33.666 81.926 33.666 82.022C33.6619 82.0768 33.6449 82.1298 33.6164 82.1767C33.5879 82.2236 33.5487 82.2631 33.502 82.292L32.83 82.68C32.74 82.722 32.668 82.686 32.668 82.6Z" fill="#BA68C8"/>
<path d="M37.8244 85.566C37.8694 85.5351 37.9064 85.494 37.9325 85.446C37.9586 85.398 37.9729 85.3446 37.9744 85.29V84.512C37.9744 84.41 37.9064 84.364 37.8224 84.414C37.7774 84.4449 37.7403 84.486 37.7142 84.534C37.6882 84.582 37.6738 84.6354 37.6724 84.69V85.466C37.6724 85.57 37.7404 85.614 37.8244 85.566Z" fill="#BA68C8"/>
<path d="M38.3182 80.02L34.5142 79.474H38.6162L38.3182 80.02Z" fill="#BA68C8"/>
<path d="M38.4643 75.296C38.4643 75.296 38.8163 78.564 38.9263 79.322C38.9371 79.3658 38.9425 79.4109 38.9423 79.456C38.9329 79.6259 38.8836 79.7912 38.7985 79.9385C38.7134 80.0858 38.5948 80.211 38.4523 80.304C38.4031 80.3404 38.3451 80.363 38.2842 80.3693C38.2233 80.3756 38.1619 80.3655 38.1063 80.34L37.8443 80.188C37.7934 80.1532 37.7529 80.1052 37.7272 80.0492C37.7015 79.9932 37.6915 79.9313 37.6983 79.87C37.6523 79.086 37.9443 75.326 37.9443 75.326L38.1983 75.144L38.4643 75.296Z" fill="#37474F"/>
<path d="M38.9421 79.456C38.9327 79.6259 38.8834 79.7912 38.7983 79.9385C38.7132 80.0858 38.5946 80.211 38.4521 80.304C38.1821 80.462 37.9621 80.334 37.9621 80.022C37.9181 79.24 38.2081 75.48 38.2081 75.48L38.4641 75.296C38.4641 75.296 38.9401 79.142 38.9421 79.456Z" fill="#455A64"/>
<path d="M38.674 79.612C38.6693 79.6889 38.6468 79.7636 38.6083 79.8302C38.5698 79.8969 38.5162 79.9536 38.452 79.996C38.33 80.066 38.23 80.008 38.23 79.868C38.2342 79.7911 38.2565 79.7162 38.295 79.6495C38.3336 79.5827 38.3874 79.5261 38.452 79.484C38.574 79.414 38.674 79.47 38.674 79.612Z" fill="#263238"/>
<path d="M42.4079 79.3161L41.6196 79.4111L41.6275 79.4766L42.4158 79.3816L42.4079 79.3161Z" fill="#37474F"/>
<path d="M39.796 82.6524L39.7354 82.6783L40.0474 83.4084L40.1081 83.3825L39.796 82.6524Z" fill="#37474F"/>
<path d="M35.8258 75.5057L35.7651 75.5317L36.0772 76.2618L36.1378 76.2359L35.8258 75.5057Z" fill="#37474F"/>
<path d="M34.2312 79.4531L33.4429 79.5481L33.4508 79.6136L34.2391 79.5186L34.2312 79.4531Z" fill="#37474F"/>
<path d="M42.9395 73.9431L42.2329 74.7359L42.2822 74.7798L42.9888 73.987L42.9395 73.9431Z" fill="#37474F"/>
<path d="M40.112 72.3273L39.7783 73.3356L39.841 73.3563L40.1746 72.3481L40.112 72.3273Z" fill="#37474F"/>
<path d="M35.9904 85.5465L35.6567 86.5548L35.7194 86.5755L36.053 85.5673L35.9904 85.5465Z" fill="#37474F"/>
<path d="M33.5469 84.1309L32.8398 84.9233L32.8891 84.9673L33.5961 84.1748L33.5469 84.1309Z" fill="#37474F"/>
<path d="M37.8519 68.98C37.8482 68.937 37.8331 68.8958 37.8081 68.8607C37.7832 68.8255 37.7493 68.7977 37.7099 68.78C37.603 68.7257 37.4848 68.6974 37.3649 68.6974C37.245 68.6974 37.1268 68.7257 37.0199 68.78C36.9806 68.7977 36.9467 68.8255 36.9217 68.8607C36.8967 68.8958 36.8816 68.937 36.8779 68.98V70.85C36.8816 70.893 36.8967 70.9342 36.9217 70.9693C36.9467 71.0045 36.9806 71.0323 37.0199 71.05C37.1268 71.1043 37.245 71.1326 37.3649 71.1326C37.4848 71.1326 37.603 71.1043 37.7099 71.05C37.7493 71.0323 37.7832 71.0045 37.8081 70.9693C37.8331 70.9342 37.8482 70.893 37.8519 70.85V68.98Z" fill="#455A64"/>
<path d="M37.0199 69.18C36.9808 69.162 36.9471 69.1341 36.9222 69.099C36.8973 69.0639 36.882 69.0229 36.8779 68.98C36.8816 68.937 36.8967 68.8958 36.9217 68.8607C36.9467 68.8255 36.9806 68.7977 37.0199 68.78C37.1268 68.7257 37.245 68.6974 37.3649 68.6974C37.4848 68.6974 37.603 68.7257 37.7099 68.78C37.7493 68.7977 37.7832 68.8255 37.8081 68.8607C37.8331 68.8958 37.8482 68.937 37.8519 68.98C37.8478 69.0229 37.8326 69.0639 37.8076 69.099C37.7827 69.1341 37.749 69.162 37.7099 69.18C37.603 69.2343 37.4848 69.2626 37.3649 69.2626C37.245 69.2626 37.1268 69.2343 37.0199 69.18Z" fill="#37474F"/>
<path d="M38.7582 67.838C38.7477 67.7164 38.7052 67.5998 38.6349 67.5C38.5647 67.4002 38.4692 67.3209 38.3582 67.27C38.0533 67.1152 37.7162 67.0346 37.3742 67.0346C37.0323 67.0346 36.6952 67.1152 36.3902 67.27C36.2793 67.3209 36.1838 67.4002 36.1135 67.5C36.0433 67.5998 36.0007 67.7164 35.9902 67.838V69.542C36.0007 69.6636 36.0433 69.7802 36.1135 69.88C36.1838 69.9798 36.2793 70.0592 36.3902 70.11C36.6952 70.2648 37.0323 70.3455 37.3742 70.3455C37.7162 70.3455 38.0533 70.2648 38.3582 70.11C38.4692 70.0592 38.5647 69.9798 38.6349 69.88C38.7052 69.7802 38.7477 69.6636 38.7582 69.542V67.838Z" fill="#BA68C8"/>
<path opacity="0.3" d="M36.3823 68.4C36.2637 68.3596 36.1607 68.2832 36.0877 68.1813C36.0148 68.0794 35.9756 67.9573 35.9756 67.832C35.9756 67.7067 36.0148 67.5846 36.0877 67.4827C36.1607 67.3809 36.2637 67.3044 36.3823 67.264C36.6872 67.1092 37.0243 67.0286 37.3663 67.0286C37.7082 67.0286 38.0453 67.1092 38.3503 67.264C38.4689 67.3044 38.5718 67.3809 38.6448 67.4827C38.7177 67.5846 38.7569 67.7067 38.7569 67.832C38.7569 67.9573 38.7177 68.0794 38.6448 68.1813C38.5718 68.2832 38.4689 68.3596 38.3503 68.4C38.0453 68.5548 37.7082 68.6354 37.3663 68.6354C37.0243 68.6354 36.6872 68.5548 36.3823 68.4Z" fill="white"/>
<path opacity="0.2" d="M36.4421 68.436V70.14C36.4801 70.158 36.5221 70.178 36.5641 70.194V68.492C36.5224 68.4758 36.4816 68.4571 36.4421 68.436ZM36.8681 68.586V70.292L36.9901 70.312V68.6C36.9491 68.5984 36.9084 68.5937 36.8681 68.586ZM36.1001 68.172V69.876C36.1367 69.9206 36.1775 69.9614 36.2221 69.998V68.296C36.1765 68.2598 36.1355 68.2182 36.1001 68.172ZM38.1501 68.498V70.2C38.1918 70.1838 38.2326 70.1651 38.2721 70.144V68.442C38.2335 68.4635 38.1934 68.4822 38.1521 68.498H38.1501ZM38.4901 68.308V70.01C38.5339 69.9748 38.5741 69.9352 38.6101 69.892V68.2C38.5774 68.2398 38.5405 68.276 38.5001 68.308H38.4901ZM37.7241 68.61V70.314L37.8461 70.294V68.588C37.8067 68.5981 37.7666 68.6055 37.7261 68.61H37.7241ZM37.3021 68.638V70.342H37.4241V68.638C37.3829 68.6421 37.3413 68.6421 37.3001 68.638H37.3021Z" fill="black"/>
<path d="M33.1704 75.76C32.4304 77.038 31.0384 77.616 29.9904 77.012C29.6808 76.8389 29.4087 76.6059 29.19 76.3267C28.9713 76.0475 28.8102 75.7275 28.7162 75.3855C28.6223 75.0435 28.5972 74.6862 28.6426 74.3344C28.6879 73.9826 28.8027 73.6434 28.9804 73.3363C29.158 73.0293 29.3949 72.7607 29.6773 72.5461C29.9597 72.3314 30.2819 72.1751 30.6252 72.0861C30.9686 71.9971 31.3262 71.9772 31.6773 72.0277C32.0284 72.0782 32.366 72.1979 32.6704 72.38C33.7124 73 33.9004 74.48 33.1704 75.76Z" fill="#455A64"/>
<path d="M29.9901 77.012C31.0381 77.612 32.4301 77.038 33.1701 75.76C33.3355 75.4733 33.4581 75.1641 33.5341 74.842C33.4901 74.898 32.2601 76.468 30.7341 76.026C29.2081 75.584 28.8841 74.376 29.0181 73.356C28.8417 73.6598 28.727 73.9955 28.6804 74.3437C28.6338 74.6919 28.6562 75.0459 28.7465 75.3854C28.8368 75.7249 28.9931 76.0434 29.2064 76.3225C29.4198 76.6015 29.6861 76.8359 29.9901 77.012Z" fill="#37474F"/>
<path d="M29.5599 73.096L29.1719 72.87C29.0628 72.8085 28.934 72.792 28.8129 72.8241C28.6918 72.8563 28.5881 72.9345 28.5239 73.042C28.4597 73.1495 28.4401 73.2779 28.4692 73.3997C28.4984 73.5216 28.574 73.6272 28.6799 73.694L29.0799 73.926C29.1841 73.9647 29.2991 73.9618 29.4012 73.9178C29.5032 73.8739 29.5844 73.7923 29.6279 73.69C29.7599 73.46 29.7299 73.2 29.5599 73.096Z" fill="#BA68C8"/>
<path d="M44.4303 68.756L44.8903 67.956C44.9555 67.8465 44.9746 67.7155 44.9433 67.5919C44.9119 67.4683 44.8328 67.3622 44.7233 67.297C44.6137 67.2318 44.4828 67.2127 44.3592 67.244C44.2356 67.2753 44.1295 67.3545 44.0643 67.464L43.6003 68.264C43.5616 68.3682 43.5645 68.4832 43.6085 68.5853C43.6524 68.6873 43.734 68.7685 43.8363 68.812C44.0663 68.956 44.3323 68.926 44.4303 68.756Z" fill="#BA68C8"/>
<path d="M40.7583 68.8C41.1225 68.204 41.7052 67.7739 42.3822 67.6017C43.0591 67.4295 43.7766 67.5288 44.3813 67.8784C44.986 68.228 45.43 68.8002 45.6185 69.4728C45.8071 70.1454 45.7252 70.865 45.3903 71.478L40.7583 68.8Z" fill="#455A64"/>
<path d="M44.8103 68.096C44.9623 68.412 45.3723 69.748 44.8103 70.08C44.2483 70.412 41.6562 69.31 41.6562 69.31L45.3923 71.47C45.7052 70.9284 45.8184 70.2941 45.7121 69.6776C45.6057 69.0612 45.2866 68.5015 44.8103 68.096Z" fill="#37474F"/>
<path d="M53.3701 53.214C53.3553 53.1529 53.3282 53.0954 53.2904 53.0452C53.2525 52.995 53.2048 52.953 53.1501 52.922L12.3501 30.016L52.7301 53.842C52.8082 53.8888 52.8985 53.9111 52.9895 53.9061C53.0804 53.9011 53.1677 53.869 53.2402 53.8139C53.3127 53.7588 53.3671 53.6833 53.3963 53.5971C53.4255 53.5108 53.4282 53.4178 53.4041 53.33L53.3701 53.214ZM69.7221 28.278L57.7221 21.878L69.2561 29.078C69.3058 29.1095 69.3613 29.1308 69.4193 29.1408C69.4773 29.1507 69.5367 29.1491 69.5941 29.136H69.6121C69.7068 29.1186 69.7935 29.0716 69.8598 29.0017C69.926 28.9318 69.9683 28.8427 69.9805 28.7472C69.9928 28.6517 69.9743 28.5548 69.9279 28.4704C69.8814 28.3861 69.8094 28.3187 69.7221 28.278ZM63.4041 32.132L30.2861 13.588L62.8861 32.976C62.9682 33.0245 63.0634 33.0461 63.1585 33.0378C63.2535 33.0296 63.3435 32.9919 63.4161 32.93L63.4781 32.878C63.5347 32.8305 63.5788 32.7699 63.6067 32.7015C63.6345 32.6331 63.6453 32.559 63.638 32.4855C63.6307 32.412 63.6056 32.3414 63.5648 32.2798C63.5241 32.2182 63.4689 32.1674 63.4041 32.132ZM54.2481 45.508C54.3079 45.5438 54.3752 45.5654 54.4447 45.5711C54.5142 45.5769 54.5841 45.5666 54.649 45.5411C54.7139 45.5156 54.7721 45.4756 54.8191 45.4241C54.8661 45.3726 54.9006 45.311 54.9201 45.244C54.9641 45.09 55.0121 44.934 55.0601 44.78L26.4601 28.872L54.2481 45.508ZM58.2481 37.73L38.4061 26.858L57.7421 38.6C57.8425 38.6592 57.9617 38.6779 58.0754 38.6522C58.1891 38.6266 58.2888 38.5586 58.3541 38.462L58.4081 38.382C58.4434 38.3299 58.4675 38.2712 58.4789 38.2093C58.4904 38.1475 58.4889 38.084 58.4746 38.0228C58.4603 37.9615 58.4336 37.9039 58.396 37.8535C58.3584 37.8032 58.3107 37.7611 58.2561 37.73H58.2481Z" fill="#F5F5F5"/>
<path d="M55.7519 40.016C52.9159 39.296 49.8399 40.446 45.2579 37.87C41.4079 35.704 38.1059 30.748 37.3219 33.886C37.0519 35.4 39.4319 39.054 40.8199 40.2C37.6819 38.8 36.8199 39.32 37.9339 41.67C39.3719 44.702 42.7879 46.912 42.7879 46.912C42.7879 46.912 40.4659 47.438 42.4819 49.406C45.1439 52.006 50.3619 51.79 50.3619 51.79C50.3619 51.79 46.3399 52.894 48.4299 53.924C49.0464 54.1833 49.7054 54.3271 50.3739 54.348C56.8839 54.78 61.9859 47.268 59.2319 42.226C58.4799 40.846 56.8759 40.302 55.7519 40.016Z" fill="#BA68C8"/>
<path opacity="0.65" d="M55.7519 40.016C52.9159 39.296 49.8399 40.446 45.2579 37.87C41.4079 35.704 38.1059 30.748 37.3219 33.886C37.0519 35.4 39.4319 39.054 40.8199 40.2C37.6819 38.8 36.8199 39.32 37.9339 41.67C39.3719 44.702 42.7879 46.912 42.7879 46.912C42.7879 46.912 40.4659 47.438 42.4819 49.406C45.1439 52.006 50.3619 51.79 50.3619 51.79C50.3619 51.79 46.3399 52.894 48.4299 53.924C49.0464 54.1833 49.7054 54.3271 50.3739 54.348C56.8839 54.78 61.9859 47.268 59.2319 42.226C58.4799 40.846 56.8759 40.302 55.7519 40.016Z" fill="white"/>
<path opacity="0.4" d="M56.4299 42.636C54.6579 41.992 52.7779 41.714 50.9639 41.208C48.5439 40.532 46.2579 39.456 43.9859 38.384L42.3719 37.258C41.8859 38.122 42.1839 39.372 42.6919 40.222C43.1999 41.072 44.0079 41.698 44.8419 42.222C44.4279 42.666 44.4279 43.388 44.7119 43.924C44.9959 44.46 45.5119 44.842 46.0339 45.142C46.8137 45.5831 47.6644 45.885 48.5479 46.034C47.8719 46.272 47.9299 46.87 47.9919 47.142C48.0662 47.4096 48.1928 47.6598 48.3644 47.8782C48.5361 48.0965 48.7493 48.2786 48.9919 48.414C49.6159 48.782 50.3579 48.89 51.0799 48.968C51.8251 49.0229 52.5736 49.0169 53.3179 48.95C53.0719 49.318 53.3299 49.834 53.6939 50.084C54.7399 50.808 56.1959 50.768 57.3659 50.402C57.801 50.2638 58.2185 50.0752 58.6099 49.84C59.5719 48.308 60.0899 46.556 59.9899 44.872C59.0459 43.846 57.7559 43.12 56.4299 42.636Z" fill="#BA68C8"/>
<path d="M53.9437 39.98C52.1317 39.7265 50.337 39.3618 48.5697 38.888C46.8117 38.412 45.1877 37.712 43.4977 37.062C43.2733 36.9522 43.0212 36.9118 42.7737 36.946C42.3977 37.038 42.2197 37.464 42.1997 37.85C42.2001 38.4493 42.3625 39.0374 42.6697 39.552C43.4025 40.6677 44.5143 41.4804 45.7997 41.84C45.5679 41.9261 45.3706 42.0857 45.2381 42.2944C45.1055 42.5032 45.045 42.7496 45.0657 42.996C45.1437 43.78 45.6877 44.174 46.1317 44.458C47.2497 45.174 48.7457 45.458 50.0657 45.596C49.5617 45.81 48.9977 46.086 48.8477 46.614C48.5077 47.814 50.0957 48.202 50.9317 48.358C52.0497 48.558 53.2017 48.478 54.3317 48.388C53.9917 48.634 54.0697 49.202 54.3777 49.488C55.3237 50.37 57.4137 49.9 58.3337 49.16C59.5897 48.146 60.1497 46.636 59.9697 44.652C59.6897 43.252 58.7197 41.69 57.5017 40.932C56.4857 40.3 55.2477 40.164 54.0617 39.996L53.9437 39.98Z" fill="#BA68C8"/>
<path opacity="0.75" d="M53.9437 39.98C52.1317 39.7265 50.337 39.3618 48.5697 38.888C46.8117 38.412 45.1877 37.712 43.4977 37.062C43.2733 36.9522 43.0212 36.9118 42.7737 36.946C42.3977 37.038 42.2197 37.464 42.1997 37.85C42.2001 38.4493 42.3625 39.0374 42.6697 39.552C43.4025 40.6677 44.5143 41.4804 45.7997 41.84C45.5679 41.9261 45.3706 42.0857 45.2381 42.2944C45.1055 42.5032 45.045 42.7496 45.0657 42.996C45.1437 43.78 45.6877 44.174 46.1317 44.458C47.2497 45.174 48.7457 45.458 50.0657 45.596C49.5617 45.81 48.9977 46.086 48.8477 46.614C48.5077 47.814 50.0957 48.202 50.9317 48.358C52.0497 48.558 53.2017 48.478 54.3317 48.388C53.9917 48.634 54.0697 49.202 54.3777 49.488C55.3237 50.37 57.4137 49.9 58.3337 49.16C59.5897 48.146 60.1497 46.636 59.9697 44.652C59.6897 43.252 58.7197 41.69 57.5017 40.932C56.4857 40.3 55.2477 40.164 54.0617 39.996L53.9437 39.98Z" fill="white"/>
<path opacity="0.4" d="M59.232 42.224C58.48 40.846 56.876 40.302 55.752 40.024C52.916 39.304 49.84 40.454 45.258 37.878C42.458 36.308 39.962 33.278 38.498 32.916L38.546 33.438C39.932 33.944 40.966 35.696 43.114 37.538C45.262 39.38 47.992 40.562 51.874 40.898C55.756 41.234 57.7 40.898 59.184 43.152C59.42 43.51 59.6 43.582 59.736 43.448C59.6126 43.0231 59.4436 42.6127 59.232 42.224Z" fill="#BA68C8"/>
<path d="M59.9657 44.652C59.8757 42.35 58.4957 39.468 54.5917 39.438C49.3577 39.396 45.5917 37.97 41.4877 34.158C39.4877 32.304 37.2997 32.134 37.3037 34.246C37.4437 33.012 38.9317 33.046 40.6017 34.792C42.5337 36.814 44.7157 38.932 49.1697 39.97C53.6237 41.008 55.2637 40.37 56.9317 41.088C58.1917 41.63 59.3157 43.022 59.9657 44.652Z" fill="#BA68C8"/>
<path opacity="0.9" d="M59.9657 44.652C59.8757 42.35 58.4957 39.468 54.5917 39.438C49.3577 39.396 45.5917 37.97 41.4877 34.158C39.4877 32.304 37.2997 32.134 37.3037 34.246C37.4437 33.012 38.9317 33.046 40.6017 34.792C42.5337 36.814 44.7157 38.932 49.1697 39.97C53.6237 41.008 55.2637 40.37 56.9317 41.088C58.1917 41.63 59.3157 43.022 59.9657 44.652Z" fill="white"/>
<path d="M75.9497 30.4C77.1737 27.914 79.8857 26.41 80.8517 21.518C81.6617 17.406 80.1337 11.96 82.8657 13.338C84.1097 14.074 85.2757 18.054 85.2437 19.762C86.1737 16.642 87.0677 16.336 88.0697 18.594C89.3617 21.504 88.8497 25.332 88.8497 25.332C88.8497 25.332 90.4757 24.224 90.5057 26.898C90.5437 30.098 87.0757 34.598 87.0757 34.598C88.0337 33.748 90.3037 32.718 89.5057 34.908C89.1857 35.79 87.4617 37.772 83.9797 39.298C79.8077 41.126 75.4897 37.92 75.3957 34.272C75.3577 32.8 75.4637 31.4 75.9497 30.4Z" fill="#BA68C8"/>
<path opacity="0.65" d="M75.9497 30.4C77.1737 27.914 79.8857 26.41 80.8517 21.518C81.6617 17.406 80.1337 11.96 82.8657 13.338C84.1097 14.074 85.2757 18.054 85.2437 19.762C86.1737 16.642 87.0677 16.336 88.0697 18.594C89.3617 21.504 88.8497 25.332 88.8497 25.332C88.8497 25.332 90.4757 24.224 90.5057 26.898C90.5437 30.098 87.0757 34.598 87.0757 34.598C88.0337 33.748 90.3037 32.718 89.5057 34.908C89.1857 35.79 87.4617 37.772 83.9797 39.298C79.8077 41.126 75.4897 37.92 75.3957 34.272C75.3577 32.8 75.4637 31.4 75.9497 30.4Z" fill="white"/>
<path opacity="0.4" d="M77.4138 32.518C78.0378 30.844 78.9918 29.318 79.7418 27.698C80.7418 25.538 81.3738 23.226 81.9998 20.928L82.1838 19.068C83.1018 19.254 83.8158 20.242 84.1138 21.132C84.4118 22.022 84.3638 22.994 84.2338 23.932C84.8058 23.908 85.3218 24.354 85.5338 24.89C85.7154 25.4414 85.7369 26.0329 85.5958 26.596C85.4356 27.4266 85.1324 28.2231 84.6998 28.95C85.2858 28.612 85.6778 29.022 85.8358 29.236C85.983 29.4536 86.0854 29.6982 86.1373 29.9557C86.1891 30.2132 86.1893 30.4784 86.1378 30.736C86.0198 31.414 85.6418 32.014 85.2558 32.582C84.8378 33.1525 84.3736 33.6876 83.8678 34.182C84.2838 34.23 84.4938 34.736 84.4518 35.154C84.3278 36.354 83.4058 37.378 82.4238 37.994C82.0576 38.2216 81.6664 38.4062 81.2578 38.544C79.0258 39.036 76.7098 38.078 76.8578 36.462C76.6738 35.15 76.9458 33.772 77.4138 32.518Z" fill="#BA68C8"/>
<path d="M77.0339 29.084C77.9638 27.6217 78.804 26.1042 79.5499 24.54C80.2859 22.98 80.7819 21.376 81.3499 19.758C81.4082 19.5264 81.5342 19.3175 81.7119 19.158C82.0099 18.944 82.4219 19.08 82.7119 19.304C83.1434 19.6783 83.466 20.1619 83.6459 20.704C83.9937 21.9217 83.8937 23.2237 83.3639 24.374C83.568 24.2597 83.804 24.216 84.0355 24.2497C84.2669 24.2833 84.4808 24.3924 84.6439 24.56C85.1579 25.102 85.1059 25.738 85.0439 26.234C84.8699 27.48 84.1619 28.738 83.4439 29.77C83.9079 29.538 84.4439 29.304 84.9219 29.522C85.9859 30.014 85.2959 31.404 84.8939 32.102C84.3559 33.036 83.5859 33.81 82.8319 34.566C83.2159 34.472 83.5759 34.88 83.5919 35.278C83.6439 36.506 82.0239 37.72 80.9279 37.924C79.4299 38.202 77.6459 38.456 76.3279 37.098C75.4899 36.028 75.3279 33.58 75.5279 32.236C75.6999 31.112 76.3619 30.138 76.9679 29.18L77.0339 29.084Z" fill="#BA68C8"/>
<path opacity="0.75" d="M77.0339 29.084C77.9638 27.6217 78.804 26.1042 79.5499 24.54C80.2859 22.98 80.7819 21.376 81.3499 19.758C81.4082 19.5264 81.5342 19.3175 81.7119 19.158C82.0099 18.944 82.4219 19.08 82.7119 19.304C83.1434 19.6783 83.466 20.1619 83.6459 20.704C83.9937 21.9217 83.8937 23.2237 83.3639 24.374C83.568 24.2597 83.804 24.216 84.0355 24.2497C84.2669 24.2833 84.4808 24.3924 84.6439 24.56C85.1579 25.102 85.1059 25.738 85.0439 26.234C84.8699 27.48 84.1619 28.738 83.4439 29.77C83.9079 29.538 84.4439 29.304 84.9219 29.522C85.9859 30.014 85.2959 31.404 84.8939 32.102C84.3559 33.036 83.5859 33.81 82.8319 34.566C83.2159 34.472 83.5759 34.88 83.5919 35.278C83.6439 36.506 82.0239 37.72 80.9279 37.924C79.4299 38.202 77.6459 38.456 76.3279 37.098C75.4899 36.028 75.3279 33.58 75.5279 32.236C75.6999 31.112 76.3619 30.138 76.9679 29.18L77.0339 29.084Z" fill="white"/>
<path opacity="0.4" d="M75.19 34.488C74.916 33.022 75.464 31.394 75.95 30.408C77.174 27.922 79.886 26.418 80.852 21.526C81.44 18.544 80.798 14.86 81.442 13.588L81.788 13.944C81.3 15.256 81.922 17.086 81.924 19.772C81.926 22.458 81.404 25.332 79.262 28.334C77.12 31.336 76.262 32.254 76.086 34.816C76.038 35.484 76.03 36.148 75.85 36.164C75.5201 35.6551 75.2957 35.0852 75.19 34.488Z" fill="#BA68C8"/>
<path d="M76.33 37.096C74.73 35.606 73.872 32.046 76.246 29.216C79.428 25.416 80.446 21.798 80.504 16.514C80.536 13.588 81.624 12.246 83.136 13.556C82.164 12.892 81.336 14.09 81.392 16.534C81.446 19.35 81.37 22.534 79.956 25.642C78.166 29.588 76.504 30.278 75.994 31.922C75.608 33.166 75.558 35.62 76.33 37.096Z" fill="#BA68C8"/>
<path opacity="0.9" d="M76.33 37.096C74.73 35.606 73.872 32.046 76.246 29.216C79.428 25.416 80.446 21.798 80.504 16.514C80.536 13.588 81.624 12.246 83.136 13.556C82.164 12.892 81.336 14.09 81.392 16.534C81.446 19.35 81.37 22.534 79.956 25.642C78.166 29.588 76.504 30.278 75.994 31.922C75.608 33.166 75.558 35.62 76.33 37.096Z" fill="white"/>
<path d="M81.3922 34.158L76.1522 31.136C74.0542 29.936 71.1682 30.136 67.9802 31.97C61.5662 35.672 56.3682 44.678 56.3682 52.084C56.3682 55.766 57.6522 58.356 59.7302 59.58L64.9682 62.6L65.7062 60.658C66.8342 60.3676 67.9156 59.9192 68.9182 59.326C75.3322 55.624 80.5322 46.618 80.5322 39.212C80.5428 38.0595 80.3927 36.9111 80.0862 35.8L81.3922 34.158Z" fill="#BA68C8"/>
<path opacity="0.1" d="M56.4682 50.274C56.4034 50.8752 56.3701 51.4793 56.3682 52.084C56.3682 55.766 57.6522 58.356 59.7302 59.58L64.9682 62.6L65.7062 60.658C65.9482 60.598 66.1922 60.526 66.4402 60.446L67.5382 56.66L56.4682 50.274Z" fill="black"/>
<path d="M81.4307 53.1436C85.9661 45.2882 85.9662 36.7974 81.4311 34.179C76.8959 31.5607 69.5428 35.8062 65.0074 43.6616C60.472 51.5171 60.4719 60.0079 65.0071 62.6262C69.5422 65.2446 76.8954 60.9991 81.4307 53.1436Z" fill="#BA68C8"/>
<path opacity="0.3" d="M81.4307 53.1436C85.9661 45.2882 85.9662 36.7974 81.4311 34.179C76.8959 31.5607 69.5428 35.8062 65.0074 43.6616C60.472 51.5171 60.4719 60.0079 65.0071 62.6262C69.5422 65.2446 76.8954 60.9991 81.4307 53.1436Z" fill="white"/>
<path d="M82.0321 37.328C80.5921 34.834 77.6321 34.552 74.1341 36.576C68.3341 39.926 63.4321 48.412 63.4341 55.11C63.4341 56.864 63.7701 58.376 64.4081 59.48C65.8481 61.976 68.8081 62.256 72.3061 60.232C78.1061 56.884 83.0061 48.396 83.0061 41.698C83.0061 39.944 82.6701 38.432 82.0321 37.328Z" fill="#BA68C8"/>
<path d="M82.192 37.42C80.56 34.82 77.392 34.42 73.74 36.348C67.682 39.548 62.782 48.036 63.04 54.882C63.108 56.682 63.524 58.234 64.24 59.388C65.872 61.988 69.03 62.388 72.692 60.46C78.75 57.26 83.65 48.772 83.392 41.926C83.324 40.126 82.906 38.574 82.192 37.42Z" fill="#BA68C8"/>
<path d="M71.5203 59.8C69.1883 61.032 67.0623 61.312 65.4043 60.684C64.946 60.3246 64.5547 59.8873 64.2483 59.392C63.5243 58.238 63.1083 56.68 63.0483 54.886C62.7903 48.04 67.6903 39.554 73.7483 36.352C76.0783 35.122 78.2043 34.84 79.8643 35.468C80.3226 35.8281 80.7139 36.2661 81.0203 36.762C81.7423 37.914 82.1603 39.474 82.2203 41.266C82.4763 48.11 77.5783 56.6 71.5203 59.8Z" fill="#FAFAFA"/>
<path d="M72.5003 38.036C72.4274 38.0858 72.3672 38.1522 72.3248 38.2297C72.2824 38.3072 72.2589 38.3937 72.2563 38.482V39.74C72.2563 39.908 72.3663 39.98 72.5003 39.902C72.5734 39.8516 72.6337 39.7849 72.6764 39.7071C72.7191 39.6293 72.743 39.5427 72.7464 39.454V38.2C72.7524 38.028 72.6423 37.956 72.5003 38.036Z" fill="#BA68C8"/>
<path d="M80.8523 42.854C80.8456 42.942 80.8182 43.0272 80.7723 43.1027C80.7264 43.1781 80.6634 43.2416 80.5883 43.288L79.5003 43.918C79.3563 44.002 79.2383 43.944 79.2383 43.788C79.2455 43.6996 79.2733 43.6141 79.3195 43.5384C79.3657 43.4627 79.429 43.3989 79.5043 43.352L80.5923 42.722C80.7363 42.638 80.8523 42.696 80.8523 42.854Z" fill="#BA68C8"/>
<path d="M63.8584 53.018C63.8651 52.9297 63.8925 52.8442 63.9383 52.7685C63.9842 52.6927 64.0473 52.6289 64.1224 52.582L65.2124 51.952C65.3564 51.868 65.4744 51.928 65.4744 52.084C65.4669 52.1723 65.4389 52.2577 65.3928 52.3333C65.3466 52.409 65.2835 52.4729 65.2084 52.52L64.1204 53.15C63.9744 53.234 63.8584 53.174 63.8584 53.018Z" fill="#BA68C8"/>
<path d="M72.2021 57.836C72.2748 57.7855 72.3348 57.7187 72.3772 57.6409C72.4195 57.5631 72.4431 57.4765 72.4461 57.388V56.13C72.4461 55.962 72.3361 55.89 72.2021 55.97C72.1288 56.0197 72.0684 56.086 72.0256 56.1635C71.9829 56.241 71.959 56.3275 71.9561 56.416V57.674C71.9581 57.842 72.0681 57.914 72.2021 57.836Z" fill="#BA68C8"/>
<path d="M73.0022 48.858L66.8442 47.974H73.4842L73.0022 48.858Z" fill="#BA68C8"/>
<path d="M73.2384 41.212C73.2384 41.212 73.8084 46.502 73.9864 47.728C74.0037 47.7994 74.0125 47.8726 74.0124 47.946C73.9967 48.2218 73.916 48.4901 73.777 48.7289C73.638 48.9676 73.4445 49.1702 73.2124 49.32C73.1324 49.3782 73.0382 49.4139 72.9397 49.4234C72.8413 49.4329 72.742 49.4158 72.6524 49.374L72.2284 49.13C72.1455 49.0738 72.0795 48.9961 72.0376 48.9051C71.9956 48.8142 71.9793 48.7135 71.9904 48.614C71.9184 47.348 72.3904 41.262 72.3904 41.262L72.8044 40.964L73.2384 41.212Z" fill="#37474F"/>
<path d="M74.0123 47.946C73.9966 48.2219 73.9159 48.4901 73.7769 48.7289C73.6379 48.9676 73.4444 49.1702 73.2123 49.32C72.7743 49.572 72.4123 49.368 72.4123 48.862C72.3403 47.596 72.8123 41.51 72.8123 41.51L73.2263 41.212C73.2263 41.212 74.0103 47.438 74.0123 47.946Z" fill="#455A64"/>
<path d="M73.5783 48.2C73.5709 48.3241 73.5347 48.4447 73.4725 48.5523C73.4104 48.6599 73.324 48.7516 73.2203 48.82C73.0203 48.934 72.8623 48.842 72.8623 48.62C72.8697 48.496 72.9059 48.3753 72.9681 48.2677C73.0302 48.1601 73.1166 48.0684 73.2203 48C73.4183 47.876 73.5783 47.968 73.5783 48.2Z" fill="#263238"/>
<path d="M79.6244 47.7129L78.3496 47.8665L78.3623 47.9717L79.6371 47.8181L79.6244 47.7129Z" fill="#37474F"/>
<path d="M75.388 53.1247L75.2905 53.1664L75.7951 54.3471L75.8926 54.3054L75.388 53.1247Z" fill="#37474F"/>
<path d="M68.87 41.7759L68.7725 41.8172L69.2732 42.9985L69.3707 42.9572L68.87 41.7759Z" fill="#37474F"/>
<path d="M66.3925 47.9363L65.1177 48.0899L65.1304 48.1951L66.4051 48.0415L66.3925 47.9363Z" fill="#37474F"/>
<path d="M80.4867 39.0334L79.3418 40.317L79.4209 40.3875L80.5658 39.1039L80.4867 39.0334Z" fill="#37474F"/>
<path d="M75.9036 36.4071L75.3633 38.04L75.4639 38.0733L76.0043 36.4404L75.9036 36.4071Z" fill="#37474F"/>
<path d="M69.2327 57.8064L68.6924 59.4393L68.793 59.4726L69.3334 57.8397L69.2327 57.8064Z" fill="#37474F"/>
<path d="M65.7779 55.5024L64.6255 56.7924L64.705 56.8634L65.8574 55.5734L65.7779 55.5024Z" fill="#37474F"/>
<path d="M72.2479 31C72.2408 30.931 72.2158 30.865 72.1755 30.8086C72.1352 30.7521 72.0809 30.7071 72.0179 30.678C71.845 30.5902 71.6538 30.5444 71.4599 30.5444C71.266 30.5444 71.0748 30.5902 70.9019 30.678C70.8386 30.7068 70.7839 30.7517 70.7432 30.8082C70.7025 30.8647 70.6772 30.9308 70.6699 31V34.024C70.6772 34.0932 70.7025 34.1593 70.7432 34.2158C70.7839 34.2723 70.8386 34.3171 70.9019 34.346C71.0748 34.4338 71.266 34.4796 71.4599 34.4796C71.6538 34.4796 71.845 34.4338 72.0179 34.346C72.0816 34.3179 72.1366 34.2732 72.1771 34.2165C72.2175 34.1599 72.242 34.0934 72.2479 34.024V31Z" fill="#455A64"/>
<path d="M70.9003 31.312C70.833 31.2892 70.7745 31.2459 70.7331 31.1881C70.6917 31.1303 70.6694 31.0611 70.6694 30.99C70.6694 30.9189 70.6917 30.8497 70.7331 30.7919C70.7745 30.7342 70.833 30.6908 70.9003 30.668C71.0732 30.5802 71.2644 30.5344 71.4583 30.5344C71.6522 30.5344 71.8434 30.5802 72.0163 30.668C72.0836 30.6908 72.142 30.7342 72.1834 30.7919C72.2248 30.8497 72.2471 30.9189 72.2471 30.99C72.2471 31.0611 72.2248 31.1303 72.1834 31.1881C72.142 31.2459 72.0836 31.2892 72.0163 31.312C71.8434 31.3998 71.6522 31.4456 71.4583 31.4456C71.2644 31.4456 71.0732 31.3998 70.9003 31.312Z" fill="#37474F"/>
<path d="M73.714 29.138C73.714 28.806 73.494 28.474 73.054 28.22C72.5604 27.9695 72.0146 27.8389 71.461 27.8389C70.9074 27.8389 70.3617 27.9695 69.868 28.22C69.428 28.474 69.208 28.806 69.208 29.138V31.898C69.208 32.232 69.428 32.564 69.868 32.818C70.3617 33.0685 70.9074 33.1991 71.461 33.1991C72.0146 33.1991 72.5604 33.0685 73.054 32.818C73.494 32.564 73.714 32.232 73.714 31.898V29.138Z" fill="#BA68C8"/>
<path opacity="0.3" d="M69.868 30.058C69.428 29.804 69.208 29.472 69.208 29.14C69.208 28.808 69.428 28.474 69.868 28.22C70.3617 27.9695 70.9074 27.8389 71.461 27.8389C72.0146 27.8389 72.5604 27.9695 73.054 28.22C73.494 28.474 73.714 28.806 73.714 29.138C73.714 29.47 73.494 29.804 73.054 30.058C72.5604 30.3085 72.0146 30.4391 71.461 30.4391C70.9074 30.4391 70.3617 30.3085 69.868 30.058Z" fill="white"/>
<path opacity="0.2" d="M69.966 30.108V32.864C70.028 32.896 70.096 32.928 70.166 32.956V30.2C70.0975 30.1736 70.0307 30.1429 69.966 30.108ZM70.656 30.352V33.112C70.718 33.124 70.786 33.136 70.856 33.144V30.386C70.786 30.378 70.718 30.366 70.656 30.352ZM69.416 29.68V32.438C69.4764 32.5107 69.5433 32.5776 69.616 32.638V29.88C69.5404 29.8229 69.4731 29.7556 69.416 29.68ZM72.734 30.21V32.966C72.8027 32.9406 72.8695 32.9105 72.934 32.876V30.12C72.8695 30.1546 72.8027 30.1847 72.734 30.21ZM73.284 29.9V32.656C73.3569 32.5958 73.4239 32.5289 73.484 32.456V29.716C73.4249 29.785 73.3577 29.8468 73.284 29.9ZM72.044 30.39V33.148C72.11 33.148 72.178 33.128 72.244 33.116V30.356C72.174 30.37 72.11 30.382 72.044 30.4V30.39ZM71.362 30.434V33.2H71.562V30.44C71.4954 30.4464 71.4282 30.4444 71.362 30.434Z" fill="black"/>
<path d="M64.6679 41.962C63.4679 44.032 61.2179 44.962 59.5239 43.99C58.5542 43.4029 57.8533 42.4591 57.5715 41.3611C57.2897 40.2631 57.4496 39.0983 58.0168 38.1168C58.584 37.1353 59.5133 36.4153 60.6053 36.1111C61.6973 35.807 62.865 35.943 63.8579 36.49C65.5479 37.48 65.8659 39.89 64.6679 41.962Z" fill="#455A64"/>
<path d="M59.5244 44C61.2184 44.978 63.4724 44.042 64.6684 41.972C64.9407 41.5097 65.1429 41.0096 65.2684 40.488C65.1984 40.578 63.2064 43.118 60.7304 42.404C58.2104 41.676 57.7304 39.734 57.9524 38.082C57.3761 39.0753 57.218 40.2567 57.5128 41.3665C57.8076 42.4764 58.5312 43.4236 59.5244 44Z" fill="#37474F"/>
<path d="M58.8263 37.65L58.1983 37.286C58.0214 37.1799 57.8096 37.1484 57.6095 37.1985C57.4094 37.2486 57.2373 37.3761 57.1313 37.553C57.0252 37.7299 56.9937 37.9417 57.0438 38.1418C57.0938 38.3419 57.2214 38.5139 57.3983 38.62L58.0423 38.994C58.3163 39.154 58.7143 38.982 58.9303 38.612C59.1463 38.242 59.1003 37.81 58.8263 37.65Z" fill="#BA68C8"/>
<path d="M82.8999 30.626L83.6419 29.342C83.6944 29.2544 83.7292 29.1573 83.7442 29.0563C83.7592 28.9553 83.7542 28.8523 83.7294 28.7532C83.7046 28.6541 83.6605 28.5609 83.5997 28.4789C83.5389 28.3968 83.4625 28.3275 83.3749 28.275C83.2873 28.2225 83.1902 28.1877 83.0892 28.1727C82.9882 28.1577 82.8852 28.1627 82.7861 28.1875C82.687 28.2123 82.5938 28.2564 82.5118 28.3172C82.4297 28.378 82.3604 28.4544 82.3079 28.542L81.5559 29.842C81.3959 30.116 81.5679 30.514 81.9399 30.73C82.3119 30.946 82.7359 30.9 82.8999 30.626Z" fill="#BA68C8"/>
<path d="M76.9521 30.684C77.5271 29.6897 78.4736 28.9645 79.5832 28.668C80.6929 28.3716 81.8748 28.528 82.8691 29.103C83.8634 29.678 84.5886 30.6244 84.8851 31.7341C85.1816 32.8437 85.0251 34.0257 84.4501 35.02L76.9521 30.684Z" fill="#455A64"/>
<path d="M83.5103 29.558C83.7563 30.07 84.4183 32.232 83.5103 32.77C82.6023 33.308 78.4043 31.522 78.4043 31.522L84.4523 35.02C84.9588 34.1431 85.1418 33.1164 84.9697 32.1185C84.7976 31.1206 84.2812 30.2146 83.5103 29.558Z" fill="#37474F"/>
</svg>
