<svg width="103" height="64" viewBox="0 0 103 64" fill="none" xmlns="http://www.w3.org/2000/svg">
<g clip-path="url(#clip0_42_235)">
<g clip-path="url(#clip1_42_235)">
<g clip-path="url(#clip2_42_235)">
<g clip-path="url(#clip3_42_235)">
<g clip-path="url(#clip4_42_235)">
<g clip-path="url(#clip5_42_235)">
<g clip-path="url(#clip6_42_235)">
<g clip-path="url(#clip7_42_235)">
<g clip-path="url(#clip8_42_235)">
<g clip-path="url(#clip9_42_235)">
<path d="M38.6711 38.2342H37.2456V26.3061H38.6711V38.2342ZM45.2356 26.3061L40.7126 32.341L45.482 38.2342H43.6341L38.9527 32.341L43.4757 26.3061H45.2356ZM55.7951 26.784V28.2528C55.2789 27.9815 54.8154 27.7868 54.4048 27.6688C53.9941 27.5508 53.4544 27.4919 52.7857 27.4919C51.5068 27.4919 50.4415 27.9284 49.5897 28.8015C48.7402 29.6745 48.3155 30.8131 48.3155 32.2171C48.3155 33.6801 48.7379 34.8481 49.5826 35.7212C50.4274 36.5943 51.5479 37.0308 52.9441 37.0308C54.0704 37.0308 55.0325 36.73 55.8303 36.1282V37.6325C55.1029 38.1281 54.1056 38.3758 52.8385 38.3758C51.0551 38.3758 49.6061 37.8237 48.4915 36.7193C47.3769 35.6174 46.8195 34.1166 46.8195 32.2171C46.8195 30.4237 47.3851 28.9631 48.5161 27.8352C49.6495 26.7096 51.0727 26.1468 52.7857 26.1468C54.0176 26.1468 55.0208 26.3592 55.7951 26.784ZM57.8542 29.2616H59.227V30.8367C59.6963 29.7276 60.5058 29.1731 61.6556 29.1731C61.8645 29.1731 62.0276 29.1849 62.1449 29.2085V30.5889C61.9009 30.5063 61.6498 30.465 61.3916 30.465C60.7698 30.465 60.2536 30.7541 59.8429 31.3322C59.4323 31.9103 59.227 32.5769 59.227 33.332V38.2342H57.8366L57.8542 29.2616ZM68.3926 35.2434V34.093H66.8439C66.093 34.093 65.5298 34.2405 65.1544 34.5355C64.7789 34.8304 64.5912 35.2021 64.5912 35.6504C64.5912 36.0987 64.7378 36.461 65.0312 36.737C65.3245 37.0155 65.7527 37.1547 66.3159 37.1547C66.9495 37.1547 67.454 36.9742 67.8294 36.6132C68.2049 36.2545 68.3926 35.7979 68.3926 35.2434ZM63.7816 31.1375V29.7394C64.4504 29.3265 65.3303 29.12 66.4215 29.12C68.6624 29.12 69.7829 30.2645 69.7829 32.5533V38.2342H68.4102V37.1724C67.9526 37.9393 67.1196 38.3227 65.9111 38.3227C65.0781 38.3227 64.407 38.075 63.8978 37.5794C63.3862 37.0839 63.1304 36.4586 63.1304 35.7035C63.1304 34.8422 63.4566 34.1721 64.109 33.6931C64.759 33.2164 65.6471 32.9781 66.7735 32.9781H68.3926V32.518C68.3926 31.81 68.2342 31.2756 67.9174 30.9146C67.6006 30.5559 67.0668 30.3766 66.3159 30.3766C65.3655 30.3766 64.5208 30.6302 63.7816 31.1375ZM76.5058 25.7221V26.9963C76.2242 26.9019 75.9544 26.8547 75.6962 26.8547C75.3208 26.8547 75.0134 26.9845 74.7741 27.2441C74.5324 27.5037 74.4115 27.9048 74.4115 28.4475V29.2616H76.3826V30.3942H74.4115V38.2342H73.0212V30.3942H71.49V29.2616H73.0212V28.4298C73.0212 27.5567 73.2535 26.8665 73.7181 26.3592C74.1804 25.8519 74.8222 25.5982 75.6434 25.5982C75.925 25.5982 76.2125 25.6395 76.5058 25.7221ZM82.4191 30.3942H79.9552V35.6504C79.9552 36.6061 80.4011 37.0839 81.2928 37.0839C81.7504 37.0839 82.1551 36.9482 82.5071 36.6769V38.0042C82.1199 38.2165 81.6858 38.3227 81.2048 38.3227C79.4449 38.3227 78.5649 37.4202 78.5649 35.615V30.3942H77.1394V29.2616H78.5649V27.0317H79.9552V29.2616H82.4191V30.3942Z" fill="white"/>
</g>
</g>
</g>
</g>
<g clip-path="url(#clip10_42_235)">
<g clip-path="url(#clip11_42_235)">
<path d="M33.607 30.1763H32.6191V28.9264C32.6191 25.7536 30.0376 23.1577 26.8824 23.1577C23.7272 23.1577 21.1458 25.7536 21.1458 28.9264V30.1763H20.1897C19.8391 30.1763 19.5522 30.4647 19.5522 30.8173V40.1754C19.5522 40.5279 19.8391 40.8164 20.1897 40.8164H33.607C33.9576 40.8164 34.2444 40.5279 34.2444 40.1754V30.8173C34.2444 30.4647 33.9576 30.1763 33.607 30.1763ZM22.4206 28.9264C22.4206 26.4587 24.4284 24.4396 26.8824 24.4396C29.3364 24.4396 31.3442 26.4587 31.3442 28.9264V30.1763H22.4206V28.9264ZM32.9696 39.5344H20.8271V31.4582H32.9696V39.5344Z" fill="white"/>
</g>
</g>
</g>
</g>
</g>
<path d="M53.2813 21.6038V5.89597H1.38916V58.0781H53.2813V42.3703H52.1354V56.9258H2.53507V7.04828H52.1354V21.6038H53.2813Z" fill="white"/>
</g>
</g>
</g>
<defs>
<clipPath id="clip0_42_235">
<rect width="102.062" height="63.9741" fill="white"/>
</clipPath>
<clipPath id="clip1_42_235">
<rect width="102.062" height="63.9741" fill="white"/>
</clipPath>
<clipPath id="clip2_42_235">
<rect width="101.872" height="64.0259" fill="white" transform="translate(0.0947266 -0.0259094)"/>
</clipPath>
<clipPath id="clip3_42_235">
<rect width="62.9569" height="17.6587" fill="white" transform="translate(19.5522 23.1577)"/>
</clipPath>
<clipPath id="clip4_42_235">
<rect width="62.9569" height="17.6587" fill="white" transform="translate(19.5522 23.1577)"/>
</clipPath>
<clipPath id="clip5_42_235">
<rect width="62.9569" height="17.6587" fill="white" transform="translate(19.5522 23.1577)"/>
</clipPath>
<clipPath id="clip6_42_235">
<rect width="45.265" height="12.7776" fill="white" transform="translate(37.2441 25.5982)"/>
</clipPath>
<clipPath id="clip7_42_235">
<rect width="45.265" height="12.7776" fill="white" transform="translate(37.2441 25.5982)"/>
</clipPath>
<clipPath id="clip8_42_235">
<rect width="45.265" height="12.7776" fill="white" transform="translate(37.2441 25.5982)"/>
</clipPath>
<clipPath id="clip9_42_235">
<rect width="45.265" height="12.7776" fill="white" transform="translate(37.2441 25.5982)"/>
</clipPath>
<clipPath id="clip10_42_235">
<rect width="14.6922" height="17.6587" fill="white" transform="translate(19.5522 23.1577)"/>
</clipPath>
<clipPath id="clip11_42_235">
<rect width="14.6922" height="17.6587" fill="white" transform="translate(19.5522 23.1577)"/>
</clipPath>
</defs>
</svg>
