<svg width="32" height="32" viewBox="0 0 32 32" fill="none" xmlns="http://www.w3.org/2000/svg">
<path d="M13.6573 21.752L8 16.0933L9.88533 14.208L13.6573 17.9787L21.1987 10.436L23.0853 12.3227L13.6573 21.752Z" fill="#35C95A"/>
<path fill-rule="evenodd" clip-rule="evenodd" d="M1.3335 16C1.3335 7.90001 7.90016 1.33334 16.0002 1.33334C24.1002 1.33334 30.6668 7.90001 30.6668 16C30.6668 24.1 24.1002 30.6667 16.0002 30.6667C7.90016 30.6667 1.3335 24.1 1.3335 16ZM16.0002 28C14.4243 28 12.8639 27.6896 11.408 27.0866C9.95205 26.4835 8.62918 25.5996 7.51488 24.4853C6.40058 23.371 5.51666 22.0481 4.91361 20.5922C4.31055 19.1363 4.00016 17.5759 4.00016 16C4.00016 14.4241 4.31055 12.8637 4.91361 11.4078C5.51666 9.9519 6.40058 8.62903 7.51488 7.51473C8.62918 6.40043 9.95205 5.51651 11.408 4.91346C12.8639 4.3104 14.4243 4.00001 16.0002 4.00001C19.1828 4.00001 22.235 5.26429 24.4854 7.51473C26.7359 9.76517 28.0002 12.8174 28.0002 16C28.0002 19.1826 26.7359 22.2349 24.4854 24.4853C22.235 26.7357 19.1828 28 16.0002 28Z" fill="#35C95A"/>
</svg>
