<svg width="32" height="32" viewBox="0 0 32 32" fill="none" xmlns="http://www.w3.org/2000/svg">
<path d="M13.6573 21.752L8 16.0934L9.88533 14.208L13.6573 17.9787L21.1987 10.436L23.0853 12.3227L13.6573 21.752Z" fill="#35C95A"/>
<path fill-rule="evenodd" clip-rule="evenodd" d="M1.33301 16C1.33301 7.90004 7.89967 1.33337 15.9997 1.33337C24.0997 1.33337 30.6663 7.90004 30.6663 16C30.6663 24.1 24.0997 30.6667 15.9997 30.6667C7.89967 30.6667 1.33301 24.1 1.33301 16ZM15.9997 28C14.4238 28 12.8634 27.6897 11.4075 27.0866C9.95157 26.4835 8.6287 25.5996 7.51439 24.4853C6.40009 23.371 5.51618 22.0481 4.91312 20.5922C4.31006 19.1363 3.99967 17.5759 3.99967 16C3.99967 14.4242 4.31006 12.8637 4.91312 11.4078C5.51618 9.95193 6.40009 8.62906 7.51439 7.51476C8.6287 6.40046 9.95157 5.51654 11.4075 4.91349C12.8634 4.31043 14.4238 4.00004 15.9997 4.00004C19.1823 4.00004 22.2345 5.26432 24.485 7.51476C26.7354 9.7652 27.9997 12.8174 27.9997 16C27.9997 19.1826 26.7354 22.2349 24.485 24.4853C22.2345 26.7358 19.1823 28 15.9997 28Z" fill="#35C95A"/>
</svg>
