<svg width="20" height="16" viewBox="0 0 20 16" fill="none" xmlns="http://www.w3.org/2000/svg">
<path fill-rule="evenodd" clip-rule="evenodd" d="M3.70692 0.292999C3.51832 0.110841 3.26571 0.0100465 3.00352 0.0123249C2.74132 0.0146034 2.49051 0.119772 2.3051 0.30518C2.11969 0.490589 2.01452 0.741401 2.01224 1.0036C2.00997 1.26579 2.11076 1.5184 2.29292 1.707L16.2929 15.707C16.4815 15.8892 16.7341 15.99 16.9963 15.9877C17.2585 15.9854 17.5093 15.8802 17.6947 15.6948C17.8801 15.5094 17.9853 15.2586 17.9876 14.9964C17.9899 14.7342 17.8891 14.4816 17.7069 14.293L16.2339 12.82C17.7914 11.5781 18.9432 9.89992 19.5419 8C18.2679 3.943 14.4779 0.999999 9.99992 0.999999C8.43235 0.997873 6.88642 1.36585 5.48792 2.074L3.70692 0.292999ZM7.96792 4.553L9.48192 6.068C9.82101 5.97795 10.1778 5.97855 10.5166 6.06973C10.8554 6.16091 11.1643 6.33948 11.4124 6.58756C11.6604 6.83565 11.839 7.14454 11.9302 7.48333C12.0214 7.82212 12.022 8.17891 11.9319 8.518L13.4459 10.032C13.8969 9.26802 14.0811 8.37579 13.9696 7.49568C13.858 6.61556 13.4571 5.79749 12.8297 5.17018C12.2024 4.54286 11.3844 4.14189 10.5042 4.03035C9.62412 3.9188 8.7319 4.10201 7.96792 4.553Z" fill="#E0E0E0"/>
<path d="M12.454 14.697L9.75001 11.992C8.77769 11.9311 7.86103 11.5174 7.17206 10.8286C6.4831 10.1398 6.06918 9.2233 6.00801 8.251L2.33501 4.578C1.49022 5.58401 0.852357 6.74691 0.458008 8C1.73201 12.057 5.52301 15 10 15C10.847 15 11.669 14.895 12.454 14.697Z" fill="#E0E0E0"/>
</svg>
