<svg width="32" height="32" viewBox="0 0 32 32" fill="none" xmlns="http://www.w3.org/2000/svg">
<path d="M14.667 14.64C14.667 14.2864 14.8075 13.9472 15.0575 13.6972C15.3076 13.4471 15.6467 13.3067 16.0003 13.3067C16.3539 13.3067 16.6931 13.4471 16.9431 13.6972C17.1932 13.9472 17.3337 14.2864 17.3337 14.64V22.64C17.3337 22.9936 17.1932 23.3328 16.9431 23.5828C16.6931 23.8328 16.3539 23.9733 16.0003 23.9733C15.6467 23.9733 15.3076 23.8328 15.0575 23.5828C14.8075 23.3328 14.667 22.9936 14.667 22.64V14.64ZM16.0003 8.06799C15.6467 8.06799 15.3076 8.20847 15.0575 8.45852C14.8075 8.70857 14.667 9.0477 14.667 9.40133C14.667 9.75495 14.8075 10.0941 15.0575 10.3441C15.3076 10.5942 15.6467 10.7347 16.0003 10.7347C16.3539 10.7347 16.6931 10.5942 16.9431 10.3441C17.1932 10.0941 17.3337 9.75495 17.3337 9.40133C17.3337 9.0477 17.1932 8.70857 16.9431 8.45852C16.6931 8.20847 16.3539 8.06799 16.0003 8.06799Z" fill="#FF9F0A"/>
<path fill-rule="evenodd" clip-rule="evenodd" d="M16.0003 2.66663C8.63633 2.66663 2.66699 8.63596 2.66699 16C2.66699 23.364 8.63633 29.3333 16.0003 29.3333C23.3643 29.3333 29.3337 23.364 29.3337 16C29.3337 8.63596 23.3643 2.66663 16.0003 2.66663ZM5.33366 16C5.33366 18.8289 6.45747 21.542 8.45785 23.5424C10.4582 25.5428 13.1713 26.6666 16.0003 26.6666C18.8293 26.6666 21.5424 25.5428 23.5428 23.5424C25.5432 21.542 26.667 18.8289 26.667 16C26.667 13.171 25.5432 10.4579 23.5428 8.45749C21.5424 6.4571 18.8293 5.33329 16.0003 5.33329C13.1713 5.33329 10.4582 6.4571 8.45785 8.45749C6.45747 10.4579 5.33366 13.171 5.33366 16Z" fill="#FF9F0A"/>
</svg>
